<?xml version="1.0" standalone="no"?>
<!DOCTYPE svg PUBLIC "-//W3C//DTD SVG 20010904//EN"
 "http://www.w3.org/TR/2001/REC-SVG-20010904/DTD/svg10.dtd">
<svg version="1.0" xmlns="http://www.w3.org/2000/svg"
 width="1024.000000pt" height="1024.000000pt" viewBox="0 0 1024.000000 1024.000000"
 preserveAspectRatio="xMidYMid meet">
<metadata>
Created by potrace 1.11, written by Peter Selinger 2001-2013
</metadata>
<g transform="translate(0.000000,1024.000000) scale(0.100000,-0.100000)"
fill="#000000" stroke="none">
<path d="M4825 9809 c-718 -39 -1403 -238 -2003 -581 -734 -419 -1407 -1095
-1825 -1830 -517 -910 -697 -2003 -517 -3133 184 -1154 847 -2212 1872 -2986
592 -448 1300 -740 2053 -848 444 -64 926 -67 1375 -10 1123 142 2104 671
2899 1564 302 339 522 664 711 1050 327 668 477 1386 457 2190 -28 1112 -378
2050 -1078 2885 -211 252 -510 540 -775 746 -902 701 -1958 1019 -3169 953z
m-278 -503 c504 -419 689 -900 562 -1459 -12 -51 -23 -93 -24 -95 -6 -7 -172
81 -249 132 -244 159 -398 397 -451 692 -21 116 -22 356 -1 494 21 141 58 310
67 310 4 0 47 -33 96 -74z m1346 -793 c-53 -344 -201 -572 -452 -698 -60 -31
-172 -67 -180 -59 -14 14 -12 158 4 236 48 241 221 410 529 519 101 35 104 35
99 2z m-1338 -837 c192 -38 396 -71 510 -81 39 -4 78 -9 88 -11 16 -5 17 -175
17 -3396 l0 -3391 -162 6 c-334 14 -616 65 -903 164 -839 290 -1575 1019
-1876 1856 -217 604 -237 1321 -53 1956 98 335 297 711 540 1016 111 139 356
384 499 499 149 119 343 247 500 329 72 37 162 91 200 120 273 203 406 468
422 840 5 120 8 137 22 133 9 -3 97 -21 196 -40z"/>
</g>
</svg>
